<mxfile host="app.diagrams.net" modified="2022-08-08T14:40:44.372Z" agent="5.0 (Windows NT 10.0; Win64; x64) AppleWebKit/537.36 (KHTML, like Gecko) Chrome/104.0.5112.81 Safari/537.36" etag="IXArDOQZ8zcdvPnFAHkl" version="20.2.3" type="github">
  <diagram name="Page-1" id="e7e014a7-5840-1c2e-5031-d8a46d1fe8dd">
    <mxGraphModel dx="1497" dy="840" grid="1" gridSize="10" guides="1" tooltips="1" connect="1" arrows="1" fold="1" page="1" pageScale="1" pageWidth="1169" pageHeight="826" background="none" math="0" shadow="0">
      <root>
        <mxCell id="0" />
        <mxCell id="1" parent="0" />
        <mxCell id="GerD_5zWlsFlDtJmIW62-51" style="edgeStyle=orthogonalEdgeStyle;rounded=0;orthogonalLoop=1;jettySize=auto;html=1;entryX=0;entryY=0.5;entryDx=0;entryDy=0;endArrow=none;endFill=0;" edge="1" parent="1" source="GerD_5zWlsFlDtJmIW62-47" target="GerD_5zWlsFlDtJmIW62-50">
          <mxGeometry relative="1" as="geometry" />
        </mxCell>
        <mxCell id="GerD_5zWlsFlDtJmIW62-71" style="rounded=0;orthogonalLoop=1;jettySize=auto;html=1;endArrow=none;endFill=0;" edge="1" parent="1" source="GerD_5zWlsFlDtJmIW62-47" target="GerD_5zWlsFlDtJmIW62-70">
          <mxGeometry relative="1" as="geometry" />
        </mxCell>
        <mxCell id="GerD_5zWlsFlDtJmIW62-47" value="Real Estate" style="html=1;dashed=1;" vertex="1" parent="1">
          <mxGeometry x="195" y="210" width="110" height="50" as="geometry" />
        </mxCell>
        <mxCell id="GerD_5zWlsFlDtJmIW62-52" style="edgeStyle=orthogonalEdgeStyle;rounded=0;orthogonalLoop=1;jettySize=auto;html=1;entryX=0.5;entryY=0;entryDx=0;entryDy=0;endArrow=none;endFill=0;" edge="1" parent="1" source="GerD_5zWlsFlDtJmIW62-48" target="GerD_5zWlsFlDtJmIW62-50">
          <mxGeometry relative="1" as="geometry" />
        </mxCell>
        <mxCell id="GerD_5zWlsFlDtJmIW62-72" value="" style="edgeStyle=none;rounded=0;orthogonalLoop=1;jettySize=auto;html=1;endArrow=none;endFill=0;" edge="1" parent="1" source="GerD_5zWlsFlDtJmIW62-48" target="GerD_5zWlsFlDtJmIW62-70">
          <mxGeometry relative="1" as="geometry" />
        </mxCell>
        <mxCell id="GerD_5zWlsFlDtJmIW62-48" value="Automotive" style="html=1;dashed=1;" vertex="1" parent="1">
          <mxGeometry x="395" y="210" width="110" height="50" as="geometry" />
        </mxCell>
        <mxCell id="GerD_5zWlsFlDtJmIW62-53" style="edgeStyle=orthogonalEdgeStyle;rounded=0;orthogonalLoop=1;jettySize=auto;html=1;entryX=1;entryY=0.5;entryDx=0;entryDy=0;endArrow=none;endFill=0;" edge="1" parent="1" source="GerD_5zWlsFlDtJmIW62-49" target="GerD_5zWlsFlDtJmIW62-50">
          <mxGeometry relative="1" as="geometry" />
        </mxCell>
        <mxCell id="GerD_5zWlsFlDtJmIW62-76" style="edgeStyle=none;rounded=0;orthogonalLoop=1;jettySize=auto;html=1;endArrow=none;endFill=0;" edge="1" parent="1" source="GerD_5zWlsFlDtJmIW62-49" target="GerD_5zWlsFlDtJmIW62-70">
          <mxGeometry relative="1" as="geometry" />
        </mxCell>
        <mxCell id="GerD_5zWlsFlDtJmIW62-49" value="Agriculture" style="html=1;dashed=1;" vertex="1" parent="1">
          <mxGeometry x="605" y="210" width="110" height="50" as="geometry" />
        </mxCell>
        <mxCell id="GerD_5zWlsFlDtJmIW62-55" value="" style="edgeStyle=orthogonalEdgeStyle;rounded=0;orthogonalLoop=1;jettySize=auto;html=1;" edge="1" parent="1" source="GerD_5zWlsFlDtJmIW62-50" target="GerD_5zWlsFlDtJmIW62-54">
          <mxGeometry relative="1" as="geometry" />
        </mxCell>
        <mxCell id="GerD_5zWlsFlDtJmIW62-50" value="Market" style="html=1;" vertex="1" parent="1">
          <mxGeometry x="395" y="360" width="110" height="50" as="geometry" />
        </mxCell>
        <mxCell id="GerD_5zWlsFlDtJmIW62-54" value="Journal" style="ellipse;whiteSpace=wrap;html=1;aspect=fixed;" vertex="1" parent="1">
          <mxGeometry x="385" y="453" width="130" height="130" as="geometry" />
        </mxCell>
        <mxCell id="GerD_5zWlsFlDtJmIW62-57" style="edgeStyle=orthogonalEdgeStyle;rounded=0;orthogonalLoop=1;jettySize=auto;html=1;entryX=0;entryY=0.5;entryDx=0;entryDy=0;endArrow=none;endFill=0;" edge="1" parent="1" source="GerD_5zWlsFlDtJmIW62-56" target="GerD_5zWlsFlDtJmIW62-54">
          <mxGeometry relative="1" as="geometry" />
        </mxCell>
        <mxCell id="GerD_5zWlsFlDtJmIW62-56" value="View Data from a National level to a Community level" style="rounded=1;whiteSpace=wrap;html=1;" vertex="1" parent="1">
          <mxGeometry x="135" y="630" width="120" height="60" as="geometry" />
        </mxCell>
        <mxCell id="GerD_5zWlsFlDtJmIW62-59" value="" style="edgeStyle=orthogonalEdgeStyle;rounded=0;orthogonalLoop=1;jettySize=auto;html=1;endArrow=none;endFill=0;" edge="1" parent="1" source="GerD_5zWlsFlDtJmIW62-58" target="GerD_5zWlsFlDtJmIW62-54">
          <mxGeometry relative="1" as="geometry" />
        </mxCell>
        <mxCell id="GerD_5zWlsFlDtJmIW62-58" value="See Trends in Market" style="rounded=1;whiteSpace=wrap;html=1;" vertex="1" parent="1">
          <mxGeometry x="390" y="630" width="120" height="60" as="geometry" />
        </mxCell>
        <mxCell id="GerD_5zWlsFlDtJmIW62-62" style="edgeStyle=orthogonalEdgeStyle;rounded=0;orthogonalLoop=1;jettySize=auto;html=1;endArrow=none;endFill=0;entryX=1;entryY=0.5;entryDx=0;entryDy=0;" edge="1" parent="1" source="GerD_5zWlsFlDtJmIW62-60" target="GerD_5zWlsFlDtJmIW62-54">
          <mxGeometry relative="1" as="geometry">
            <mxPoint x="525" y="500" as="targetPoint" />
          </mxGeometry>
        </mxCell>
        <mxCell id="GerD_5zWlsFlDtJmIW62-60" value="Add personal market sentiments" style="rounded=1;whiteSpace=wrap;html=1;" vertex="1" parent="1">
          <mxGeometry x="605" y="630" width="120" height="60" as="geometry" />
        </mxCell>
        <mxCell id="GerD_5zWlsFlDtJmIW62-79" value="" style="edgeStyle=none;rounded=0;orthogonalLoop=1;jettySize=auto;html=1;endArrow=none;endFill=0;" edge="1" parent="1" source="GerD_5zWlsFlDtJmIW62-70" target="GerD_5zWlsFlDtJmIW62-78">
          <mxGeometry relative="1" as="geometry" />
        </mxCell>
        <mxCell id="GerD_5zWlsFlDtJmIW62-70" value="Timeseries Data" style="ellipse;whiteSpace=wrap;html=1;aspect=fixed;" vertex="1" parent="1">
          <mxGeometry x="410" y="80" width="80" height="80" as="geometry" />
        </mxCell>
        <mxCell id="GerD_5zWlsFlDtJmIW62-78" value="Metadata" style="whiteSpace=wrap;html=1;fillColor=rgb(255, 255, 255);strokeColor=rgb(0, 0, 0);fontColor=rgb(0, 0, 0);" vertex="1" parent="1">
          <mxGeometry x="845" y="105" width="120" height="30" as="geometry" />
        </mxCell>
      </root>
    </mxGraphModel>
  </diagram>
</mxfile>
